<svg width="28" height="28" viewBox="0 0 28 28" fill="none" xmlns="http://www.w3.org/2000/svg">
<g clip-path="url(#clip0_406:543)">
<path d="M9.08714 21.7328C9.08714 21.8422 8.96116 21.9297 8.80232 21.9297C8.62156 21.9461 8.49558 21.8586 8.49558 21.7328C8.49558 21.6234 8.62156 21.5359 8.78041 21.5359C8.94473 21.5195 9.08714 21.607 9.08714 21.7328ZM7.38365 21.4867C7.34531 21.5961 7.45486 21.7219 7.61918 21.7547C7.76159 21.8094 7.92592 21.7547 7.95878 21.6453C7.99165 21.5359 7.88758 21.4102 7.72325 21.3609C7.58084 21.3227 7.42199 21.3773 7.38365 21.4867ZM9.8047 21.3938C9.64585 21.432 9.5363 21.5359 9.55273 21.6617C9.56916 21.7711 9.71158 21.8422 9.8759 21.8039C10.0347 21.7656 10.1443 21.6617 10.1279 21.5523C10.1114 21.4484 9.96354 21.3773 9.8047 21.3938ZM13.4089 0.4375C5.81161 0.4375 0 6.19609 0 13.7812C0 19.8461 3.82328 25.0359 9.28433 26.8625C9.98545 26.9883 10.2319 26.5562 10.2319 26.2008C10.2319 25.8617 10.2155 23.9914 10.2155 22.843C10.2155 22.843 6.38127 23.6633 5.57608 21.2133C5.57608 21.2133 4.95164 19.6219 4.05334 19.2117C4.05334 19.2117 2.79899 18.3531 4.14098 18.3695C4.14098 18.3695 5.50487 18.4789 6.25529 19.7805C7.45485 21.8914 9.46509 21.2844 10.2484 20.9234C10.3744 20.0484 10.7304 19.4414 11.1248 19.0805C8.06286 18.7414 4.97356 18.2984 4.97356 13.0375C4.97356 11.5336 5.38984 10.7789 6.26624 9.81641C6.12383 9.46094 5.65824 7.99531 6.40866 6.10313C7.55345 5.74766 10.1881 7.57969 10.1881 7.57969C11.2836 7.27344 12.4613 7.11484 13.628 7.11484C14.7947 7.11484 15.9723 7.27344 17.0678 7.57969C17.0678 7.57969 19.7025 5.74219 20.8473 6.10313C21.5977 8.00078 21.1321 9.46094 20.9897 9.81641C21.8661 10.7844 22.4029 11.5391 22.4029 13.0375C22.4029 18.3148 19.1767 18.7359 16.1148 19.0805C16.6187 19.5125 17.0459 20.3328 17.0459 21.618C17.0459 23.4609 17.0295 25.7414 17.0295 26.1898C17.0295 26.5453 17.2815 26.9773 17.9771 26.8516C23.4546 25.0359 27.1683 19.8461 27.1683 13.7812C27.1683 6.19609 21.0061 0.4375 13.4089 0.4375ZM5.32411 19.2992C5.25291 19.3539 5.26934 19.4797 5.36246 19.5836C5.4501 19.6711 5.57608 19.7094 5.64729 19.6383C5.71849 19.5836 5.70206 19.4578 5.60894 19.3539C5.5213 19.2664 5.39532 19.2281 5.32411 19.2992ZM4.73255 18.8562C4.6942 18.9273 4.74898 19.0148 4.85853 19.0695C4.94617 19.1242 5.05572 19.1078 5.09406 19.0312C5.1324 18.9602 5.07763 18.8727 4.96808 18.818C4.85853 18.7852 4.77089 18.8016 4.73255 18.8562ZM6.50725 20.8031C6.41961 20.8742 6.45248 21.0383 6.57846 21.1422C6.70444 21.268 6.86329 21.2844 6.93449 21.1969C7.0057 21.1258 6.97284 20.9617 6.86329 20.8578C6.74278 20.732 6.57846 20.7156 6.50725 20.8031ZM5.88282 19.9992C5.79518 20.0539 5.79518 20.1961 5.88282 20.3219C5.97046 20.4477 6.11835 20.5023 6.18956 20.4477C6.2772 20.3766 6.2772 20.2344 6.18956 20.1086C6.11287 19.9828 5.97046 19.9281 5.88282 19.9992Z" fill="white"/>
</g>
<defs>
<clipPath id="clip0_406:543">
<rect width="27.1683" height="28" fill="white"/>
</clipPath>
</defs>
</svg>
