<svg width="25" height="30" viewBox="0 0 25 30" fill="none" xmlns="http://www.w3.org/2000/svg">
<g clip-path="url(#clip0_406:541)">
<path d="M12.2036 8.07137C8.74026 8.07137 5.9467 11.008 5.9467 14.6487C5.9467 18.2894 8.74026 21.226 12.2036 21.226C15.667 21.226 18.4605 18.2894 18.4605 14.6487C18.4605 11.008 15.667 8.07137 12.2036 8.07137ZM12.2036 18.9248C9.96551 18.9248 8.13581 17.0071 8.13581 14.6487C8.13581 12.2902 9.96006 10.3726 12.2036 10.3726C14.4472 10.3726 16.2714 12.2902 16.2714 14.6487C16.2714 17.0071 14.4417 18.9248 12.2036 18.9248V18.9248ZM20.1759 7.80233C20.1759 8.65526 19.5224 9.33646 18.7165 9.33646C17.9051 9.33646 17.2571 8.64953 17.2571 7.80233C17.2571 6.95512 17.9105 6.26819 18.7165 6.26819C19.5224 6.26819 20.1759 6.95512 20.1759 7.80233ZM24.3199 9.35936C24.2274 7.3043 23.7808 5.48395 22.3487 3.98416C20.9219 2.48437 19.1902 2.01498 17.2353 1.91194C15.2204 1.79172 9.18135 1.79172 7.1665 1.91194C5.217 2.00925 3.48532 2.47865 2.05314 3.97844C0.620969 5.47823 0.179881 7.29858 0.0818609 9.35363C-0.0324953 11.4717 -0.0324953 17.82 0.0818609 19.938C0.174435 21.9931 0.620969 23.8134 2.05314 25.3132C3.48532 26.813 5.21155 27.2824 7.1665 27.3854C9.18135 27.5056 15.2204 27.5056 17.2353 27.3854C19.1902 27.2881 20.9219 26.8187 22.3487 25.3132C23.7754 23.8134 24.2219 21.9931 24.3199 19.938C24.4343 17.82 24.4343 11.4774 24.3199 9.35936V9.35936ZM21.717 22.2106C21.2922 23.3326 20.4699 24.197 19.3972 24.6492C17.7907 25.3189 13.9789 25.1644 12.2036 25.1644C10.4284 25.1644 6.61106 25.3132 5.01007 24.6492C3.94274 24.2027 3.12047 23.3383 2.69027 22.2106C2.05314 20.5219 2.20017 16.5148 2.20017 14.6487C2.20017 12.7825 2.05859 8.76975 2.69027 7.08678C3.11502 5.9648 3.9373 5.10042 5.01007 4.64819C6.6165 3.97844 10.4284 4.133 12.2036 4.133C13.9789 4.133 17.7962 3.98416 19.3972 4.64819C20.4645 5.09469 21.2868 5.95907 21.717 7.08678C22.3541 8.77547 22.2071 12.7825 22.2071 14.6487C22.2071 16.5148 22.3541 20.5276 21.717 22.2106Z" fill="white"/>
</g>
<defs>
<clipPath id="clip0_406:541">
<rect width="24.396" height="29.3088" fill="white"/>
</clipPath>
</defs>
</svg>
