<svg width="32" height="28" viewBox="0 0 32 28" fill="none" xmlns="http://www.w3.org/2000/svg">
<path d="M29.7687 6.43672C29.9708 5.75312 29.7687 5.25 28.7965 5.25H25.5793C24.76 5.25 24.3831 5.68203 24.181 6.16328C24.181 6.16328 22.5423 10.1609 20.2264 12.7531C19.4781 13.5023 19.134 13.743 18.7243 13.743C18.5222 13.743 18.2109 13.5023 18.2109 12.8188V6.43672C18.2109 5.61641 17.9815 5.25 17.3042 5.25H12.2462C11.7328 5.25 11.4269 5.63281 11.4269 5.98828C11.4269 6.76484 12.5849 6.94531 12.7051 9.13281V13.8797C12.7051 14.9188 12.5193 15.1102 12.1097 15.1102C11.0173 15.1102 8.36267 11.0961 6.78958 6.50234C6.47277 5.61094 6.16143 5.25 5.33665 5.25H2.11946C1.20183 5.25 1.01611 5.68203 1.01611 6.16328C1.01611 7.01641 2.10854 11.2547 6.10135 16.8547C8.7614 20.6773 12.5084 22.75 15.9168 22.75C17.9651 22.75 18.2163 22.2906 18.2163 21.4977C18.2163 17.8445 18.0306 17.5 19.0575 17.5C19.5327 17.5 20.352 17.7406 22.2638 19.5836C24.4486 21.7711 24.8091 22.75 26.0326 22.75H29.2498C30.1675 22.75 30.6317 22.2906 30.3641 21.3828C29.7523 19.4742 25.6175 15.5477 25.4318 15.2852C24.9566 14.6727 25.0931 14.3992 25.4318 13.8523C25.4373 13.8469 29.3645 8.3125 29.7687 6.43672Z" fill="white"/>
</svg>
